# xmcd
#
# Track frame offsets: 
#        150
#        21927
#        52352
#        82020
#        107077
#        149605
#        163195
#
# Disc length: 2494 seconds
#
# Revision: 1
# Processed by: cddbd v1.5.2PL0 Copyright (c) Steve Scherf et al.
# Submitted via: ExactAudioCopy v0.99pb4
#
DISCID=6709bc07
DTITLE=Jimmy Forrest - All the Gin is Gone
DYEAR=1959
DGENRE=Jazz
TTITLE0=All the Gin is Gone
TTITLE1=Laura
TTITLE2=You Go to my Head
TTITLE3=Myra
TTITLE4=Caravan
TTITLE5=What's New
TTITLE6=Sunkenfoal
EXTD=YEAR: 1997
EXTT0=
EXTT1=
EXTT2=
EXTT3=
EXTT4=
EXTT5=
EXTT6=
PLAYORDER=
